<?xml version="1.0" standalone="no"?><!DOCTYPE svg PUBLIC "-//W3C//DTD SVG 1.1//EN" "http://www.w3.org/Graphics/SVG/1.1/DTD/svg11.dtd"><svg t="1768821843225" class="icon" viewBox="0 0 1024 1024" version="1.1" xmlns="http://www.w3.org/2000/svg" p-id="1131" xmlns:xlink="http://www.w3.org/1999/xlink" width="200" height="200"><path d="M512.66 526.94m-350.06 0a350.06 350.06 0 1 0 700.12 0 350.06 350.06 0 1 0-700.12 0Z" fill="#FFE457" p-id="1132"></path><path d="M379.09 375.4c-12.02-53.88-17.67-114.01 6.7-165.19 9.85-20.68 23.97-40.05 42.5-53.36 18.33-13.16 38.76-19.96 60.7-19.85 19.93 0.1 41.02 6.29 56.01 19.28 15.82 13.71 24.51 33.2 25.97 52.96 1.62 21.84-3.42 43.46-13.86 62.61-5.32 9.76-11.25 19.12-19.91 26.01-3.5 2.78-7.2 4.93-11.37 5.97-1.54 0.38-2.72 0.55-4.01 0.2-1.5-0.41-2.12-0.7-3.41-2.86-4.91-8.22-2.45-20.91 1.25-29.66 4.21-9.96 12.05-19.31 20.22-26.92 17.59-16.38 40.47-28.49 63.98-33.48 21.54-4.57 44.14-0.52 58.55 15.76 12.13 13.7 16.34 34.52 13.74 54.16 0.27-2.02-0.41 2.31-0.37 2.11-0.24 1.32-0.51 2.63-0.8 3.94-0.59 2.61-1.3 5.19-2.12 7.73-1.77 5.46-3.21 8.53-6.17 13.84-5.76 10.31-13.1 19.2-21.7 27.31-8.67 8.17-18.31 15.09-28.5 21.24-4.89 2.95-9.88 5.71-14.96 8.31-4.5 2.31-10.99 6.54-15.68 6.92-1.47 0.12-1.22-0.04-2.29-1.09s-1.62-2.21-2.05-3.68c-1.16-3.92 0.03-8.04 3.08-13.02 6.42-10.49 16.58-19.33 25.57-27.57 18.77-17.2 39.85-31.71 62.46-43.39 22.94-11.86 48.17-21.59 73.91-24.9 23.3-3 49.08-0.19 67.87 14.44 17.67 13.76 28.26 35.73 28.11 57.46-0.15 21.35-11.05 42.61-28.53 56.07-6.78 5.22-18.67 12.98-28.17 10.47-14.95-3.96-21.32 19.19-6.38 23.14 16.2 4.29 33.19-3.09 46.19-12.56 11.53-8.39 21.3-18.93 28.36-31.37 14.24-25.11 16.37-55.4 5.24-82.08-11.66-27.97-35.13-49.03-64.56-56.78-30.2-7.96-62.75-2.73-91.82 7.26-28.85 9.92-56.31 24.02-81 41.96-12.42 9.02-24.27 18.83-35.27 29.54-10.97 10.69-23.25 22.52-27.89 37.55-4.37 14.17 0.63 32.02 14.35 39.25 15.67 8.25 33.01-2.65 46.79-10.18 25.31-13.83 48.89-32.36 64.47-56.96 28.43-44.89 20.48-113.97-33.33-135.39-28.48-11.34-61.06-3.31-87.57 9.49-25.66 12.39-51.9 32.32-64.18 58.75-6.46 13.9-9.29 29.51-5.43 44.6 4.27 16.7 18.64 26.95 35.78 24.05 14.27-2.42 26.35-12.72 35.03-23.76 8.77-11.16 15.6-23.14 20.92-36.3 9.99-24.75 12.84-53.17 6.16-79.14-6.73-26.18-24.06-48.87-47.91-61.72-24.09-12.97-52.2-16.16-78.93-11.31-27.16 4.92-51.87 19.96-70.62 39.97-43.96 46.93-54.33 113.41-47.09 175.26 2.02 17.25 5.06 34.34 8.84 51.29 1.41 6.33 8.73 10.04 14.76 8.38 6.52-1.79 9.8-8.41 8.38-14.76zM371.35 477.36c-1.75 7.14-5.04 13.04-10.29 18.2 4.85-0.63 9.69-1.25 14.54-1.88-0.67-0.32-1.32-0.69-1.94-1.11 0.96 0.77 0.93 0.7-0.09-0.23-2.47-2.61 1.5 1.75-0.74-1.05-0.62-1.25-0.69-1.29-0.19-0.13-0.2-0.52-0.37-1.05-0.51-1.59-0.16-0.53-0.29-1.08-0.4-1.63 0.13 1.35 0.13 1.3 0.02-0.14 0-1.12-0.05-2.24 0.09-3.36-0.32 2.58 0.61-1.68 0.83-2.2-0.82 1.91 0.54-0.46 0.82-1-0.46 0.86-0.34 0.33 0.47-0.2-4.85-0.63-9.69-1.25-14.54-1.88 2.11 2.35 2.62 5.63 1.92 8.45-3.72 14.99 19.42 21.39 23.14 6.38 2.87-11.6-0.16-22.95-8.09-31.8-3.38-3.77-10.29-4.66-14.54-1.88-18.74 12.27-19.04 43.27 1.63 54.08 4.79 2.51 10.61 1.98 14.54-1.88 8.05-7.9 13.78-17.82 16.46-28.79 3.67-15-19.46-21.4-23.14-6.38zM502.23 493.21c-14.97 13.55-26.65 29.85-39.39 45.39-11.93 14.54-24.61 27.39-42.08 34.34-6.43 2.56-12.21 10.73-7.17 17.63 16.42 22.47 43.99 36.08 72.05 32.53 6.43-0.81 12-4.93 12-12 0-5.85-5.53-12.82-12-12-19.21 2.43-39.59-4.58-51.33-20.64-2.39 5.88-4.78 11.75-7.17 17.63 20.51-8.16 36.82-21.54 50.89-38.36 13.49-16.12 25.5-33.35 41.17-47.53 4.81-4.35 4.42-12.55 0-16.97-4.78-4.78-12.15-4.36-16.97 0zM603.13 503.25c-4.06 22.91 2.24 45.79 18.05 63 4.37 4.76 12.55 4.46 16.97 0 16.33-16.48 28.65-35.87 37.24-57.38 2.4-6.02-2.63-13.18-8.38-14.76-6.84-1.88-12.35 2.34-14.76 8.38-7 17.54-17.81 33.41-31.07 46.79h16.97c-9.78-10.66-14.31-25.96-11.88-39.65 1.13-6.37-1.72-12.93-8.38-14.76-5.8-1.59-13.62 1.97-14.76 8.38zM397.58 710.22c13.35 11.28 21.1 26.87 30.67 41.17 10.26 15.33 23.31 29.32 40.96 35.88 19.45 7.23 38.45-0.17 54.84-11 16.17-10.67 31.59-22.61 46.05-35.49 16.12-14.37 30.98-30.08 44.52-46.9 4.06-5.04 4.93-12.04 0-16.97-4.2-4.2-12.88-5.07-16.97 0-21.84 27.12-47.19 51.54-75.61 71.71-11.66 8.27-26.86 20.57-41.45 17.05-13.84-3.33-24.36-15.45-32.07-27.08-10.44-15.73-19.32-32.96-33.97-45.34-4.95-4.18-12.12-4.85-16.97 0-4.29 4.29-4.97 12.77 0 16.97z" fill="#1D1918" p-id="1133"></path></svg>